<mxfile host="app.diagrams.net" agent="Mozilla/5.0 (X11; Linux x86_64; rv:127.0) Gecko/20100101 Firefox/127.0" version="24.7.14">
  <diagram name="Página-1" id="ViHkHZxCypmYFuik1_C_">
    <mxGraphModel dx="1434" dy="763" grid="1" gridSize="10" guides="1" tooltips="1" connect="1" arrows="1" fold="1" page="1" pageScale="1" pageWidth="1169" pageHeight="827" math="0" shadow="0">
      <root>
        <mxCell id="0" />
        <mxCell id="1" parent="0" />
        <mxCell id="0lG493gz5aTsEJa9Uoez-13" style="rounded=0;orthogonalLoop=1;jettySize=auto;html=1;exitX=0;exitY=0.5;exitDx=0;exitDy=0;entryX=1;entryY=0;entryDx=0;entryDy=0;endArrow=none;endFill=0;" edge="1" parent="1" source="0lG493gz5aTsEJa9Uoez-1" target="0lG493gz5aTsEJa9Uoez-5">
          <mxGeometry relative="1" as="geometry" />
        </mxCell>
        <mxCell id="0lG493gz5aTsEJa9Uoez-1" value="Productos" style="rounded=1;arcSize=10;whiteSpace=wrap;html=1;align=center;" vertex="1" parent="1">
          <mxGeometry x="525" y="194" width="100" height="40" as="geometry" />
        </mxCell>
        <mxCell id="0lG493gz5aTsEJa9Uoez-15" style="edgeStyle=none;shape=connector;rounded=0;orthogonalLoop=1;jettySize=auto;html=1;exitX=0.5;exitY=1;exitDx=0;exitDy=0;strokeColor=default;align=center;verticalAlign=middle;fontFamily=Helvetica;fontSize=11;fontColor=default;labelBackgroundColor=default;endArrow=none;endFill=0;" edge="1" parent="1" source="0lG493gz5aTsEJa9Uoez-2" target="0lG493gz5aTsEJa9Uoez-7">
          <mxGeometry relative="1" as="geometry" />
        </mxCell>
        <mxCell id="0lG493gz5aTsEJa9Uoez-2" value="Proveedor" style="rounded=1;arcSize=10;whiteSpace=wrap;html=1;align=center;" vertex="1" parent="1">
          <mxGeometry x="205" y="374" width="100" height="40" as="geometry" />
        </mxCell>
        <mxCell id="0lG493gz5aTsEJa9Uoez-19" style="edgeStyle=none;shape=connector;rounded=0;orthogonalLoop=1;jettySize=auto;html=1;exitX=0.5;exitY=0;exitDx=0;exitDy=0;entryX=1;entryY=1;entryDx=0;entryDy=0;strokeColor=default;align=center;verticalAlign=middle;fontFamily=Helvetica;fontSize=11;fontColor=default;labelBackgroundColor=default;endArrow=none;endFill=0;" edge="1" parent="1" source="0lG493gz5aTsEJa9Uoez-3" target="0lG493gz5aTsEJa9Uoez-6">
          <mxGeometry relative="1" as="geometry" />
        </mxCell>
        <mxCell id="0lG493gz5aTsEJa9Uoez-3" value="Cliente" style="rounded=1;arcSize=10;whiteSpace=wrap;html=1;align=center;" vertex="1" parent="1">
          <mxGeometry x="785" y="384" width="100" height="40" as="geometry" />
        </mxCell>
        <mxCell id="0lG493gz5aTsEJa9Uoez-17" style="edgeStyle=none;shape=connector;rounded=0;orthogonalLoop=1;jettySize=auto;html=1;exitX=1;exitY=0.5;exitDx=0;exitDy=0;entryX=0;entryY=1;entryDx=0;entryDy=0;strokeColor=default;align=center;verticalAlign=middle;fontFamily=Helvetica;fontSize=11;fontColor=default;labelBackgroundColor=default;endArrow=none;endFill=0;" edge="1" parent="1" source="0lG493gz5aTsEJa9Uoez-4" target="0lG493gz5aTsEJa9Uoez-8">
          <mxGeometry relative="1" as="geometry" />
        </mxCell>
        <mxCell id="0lG493gz5aTsEJa9Uoez-4" value="Calle" style="shape=ext;margin=3;double=1;whiteSpace=wrap;html=1;align=center;" vertex="1" parent="1">
          <mxGeometry x="525" y="514" width="100" height="40" as="geometry" />
        </mxCell>
        <mxCell id="0lG493gz5aTsEJa9Uoez-14" style="edgeStyle=none;shape=connector;rounded=0;orthogonalLoop=1;jettySize=auto;html=1;exitX=0;exitY=1;exitDx=0;exitDy=0;entryX=0.5;entryY=0;entryDx=0;entryDy=0;strokeColor=default;align=center;verticalAlign=middle;fontFamily=Helvetica;fontSize=11;fontColor=default;labelBackgroundColor=default;endArrow=none;endFill=0;" edge="1" parent="1" source="0lG493gz5aTsEJa9Uoez-5" target="0lG493gz5aTsEJa9Uoez-2">
          <mxGeometry relative="1" as="geometry" />
        </mxCell>
        <mxCell id="0lG493gz5aTsEJa9Uoez-5" value="Relationship" style="shape=rhombus;perimeter=rhombusPerimeter;whiteSpace=wrap;html=1;align=center;" vertex="1" parent="1">
          <mxGeometry x="315" y="234" width="60" height="40" as="geometry" />
        </mxCell>
        <mxCell id="0lG493gz5aTsEJa9Uoez-20" style="edgeStyle=none;shape=connector;rounded=0;orthogonalLoop=1;jettySize=auto;html=1;exitX=0;exitY=0;exitDx=0;exitDy=0;entryX=1;entryY=0.5;entryDx=0;entryDy=0;strokeColor=default;align=center;verticalAlign=middle;fontFamily=Helvetica;fontSize=11;fontColor=default;labelBackgroundColor=default;endArrow=none;endFill=0;" edge="1" parent="1" source="0lG493gz5aTsEJa9Uoez-6" target="0lG493gz5aTsEJa9Uoez-1">
          <mxGeometry relative="1" as="geometry" />
        </mxCell>
        <mxCell id="0lG493gz5aTsEJa9Uoez-6" value="Relationship" style="shape=rhombus;perimeter=rhombusPerimeter;whiteSpace=wrap;html=1;align=center;" vertex="1" parent="1">
          <mxGeometry x="775" y="234" width="60" height="40" as="geometry" />
        </mxCell>
        <mxCell id="0lG493gz5aTsEJa9Uoez-16" style="edgeStyle=none;shape=connector;rounded=0;orthogonalLoop=1;jettySize=auto;html=1;exitX=1;exitY=1;exitDx=0;exitDy=0;entryX=0;entryY=0.5;entryDx=0;entryDy=0;strokeColor=default;align=center;verticalAlign=middle;fontFamily=Helvetica;fontSize=11;fontColor=default;labelBackgroundColor=default;endArrow=none;endFill=0;" edge="1" parent="1" source="0lG493gz5aTsEJa9Uoez-7" target="0lG493gz5aTsEJa9Uoez-4">
          <mxGeometry relative="1" as="geometry" />
        </mxCell>
        <mxCell id="0lG493gz5aTsEJa9Uoez-7" value="Relationship" style="shape=rhombus;perimeter=rhombusPerimeter;whiteSpace=wrap;html=1;align=center;" vertex="1" parent="1">
          <mxGeometry x="345" y="474" width="60" height="40" as="geometry" />
        </mxCell>
        <mxCell id="0lG493gz5aTsEJa9Uoez-18" style="edgeStyle=none;shape=connector;rounded=0;orthogonalLoop=1;jettySize=auto;html=1;exitX=1;exitY=0;exitDx=0;exitDy=0;entryX=0.5;entryY=1;entryDx=0;entryDy=0;strokeColor=default;align=center;verticalAlign=middle;fontFamily=Helvetica;fontSize=11;fontColor=default;labelBackgroundColor=default;endArrow=none;endFill=0;" edge="1" parent="1" source="0lG493gz5aTsEJa9Uoez-8" target="0lG493gz5aTsEJa9Uoez-3">
          <mxGeometry relative="1" as="geometry" />
        </mxCell>
        <mxCell id="0lG493gz5aTsEJa9Uoez-8" value="Relationship" style="shape=rhombus;perimeter=rhombusPerimeter;whiteSpace=wrap;html=1;align=center;" vertex="1" parent="1">
          <mxGeometry x="725" y="468" width="60" height="40" as="geometry" />
        </mxCell>
        <mxCell id="0lG493gz5aTsEJa9Uoez-22" style="edgeStyle=none;shape=connector;rounded=0;orthogonalLoop=1;jettySize=auto;html=1;exitX=1;exitY=0.5;exitDx=0;exitDy=0;entryX=0;entryY=0.5;entryDx=0;entryDy=0;strokeColor=default;align=center;verticalAlign=middle;fontFamily=Helvetica;fontSize=11;fontColor=default;labelBackgroundColor=default;endArrow=none;endFill=0;" edge="1" parent="1" source="0lG493gz5aTsEJa9Uoez-9" target="0lG493gz5aTsEJa9Uoez-10">
          <mxGeometry relative="1" as="geometry" />
        </mxCell>
        <mxCell id="0lG493gz5aTsEJa9Uoez-9" value="Relationship" style="shape=rhombus;perimeter=rhombusPerimeter;whiteSpace=wrap;html=1;align=center;" vertex="1" parent="1">
          <mxGeometry x="545" y="614" width="60" height="40" as="geometry" />
        </mxCell>
        <mxCell id="0lG493gz5aTsEJa9Uoez-53" style="edgeStyle=none;shape=connector;rounded=0;orthogonalLoop=1;jettySize=auto;html=1;exitX=1;exitY=0.5;exitDx=0;exitDy=0;entryX=0;entryY=0.5;entryDx=0;entryDy=0;strokeColor=default;align=center;verticalAlign=middle;fontFamily=Helvetica;fontSize=11;fontColor=default;labelBackgroundColor=default;endArrow=none;endFill=0;" edge="1" parent="1" source="0lG493gz5aTsEJa9Uoez-10" target="0lG493gz5aTsEJa9Uoez-52">
          <mxGeometry relative="1" as="geometry" />
        </mxCell>
        <mxCell id="0lG493gz5aTsEJa9Uoez-10" value="Población" style="shape=ext;margin=3;double=1;whiteSpace=wrap;html=1;align=center;" vertex="1" parent="1">
          <mxGeometry x="725" y="614" width="100" height="40" as="geometry" />
        </mxCell>
        <mxCell id="0lG493gz5aTsEJa9Uoez-12" value="Provincia" style="rounded=1;arcSize=10;whiteSpace=wrap;html=1;align=center;" vertex="1" parent="1">
          <mxGeometry x="975" y="614" width="100" height="40" as="geometry" />
        </mxCell>
        <mxCell id="0lG493gz5aTsEJa9Uoez-21" style="edgeStyle=none;shape=connector;rounded=0;orthogonalLoop=1;jettySize=auto;html=1;exitX=0.5;exitY=1;exitDx=0;exitDy=0;entryX=0.5;entryY=0;entryDx=0;entryDy=0;strokeColor=default;align=center;verticalAlign=middle;fontFamily=Helvetica;fontSize=11;fontColor=default;labelBackgroundColor=default;endArrow=none;endFill=0;" edge="1" parent="1" source="0lG493gz5aTsEJa9Uoez-4" target="0lG493gz5aTsEJa9Uoez-9">
          <mxGeometry relative="1" as="geometry" />
        </mxCell>
        <mxCell id="0lG493gz5aTsEJa9Uoez-29" style="edgeStyle=none;shape=connector;rounded=0;orthogonalLoop=1;jettySize=auto;html=1;exitX=1;exitY=0.5;exitDx=0;exitDy=0;entryX=0;entryY=0.25;entryDx=0;entryDy=0;strokeColor=default;align=center;verticalAlign=middle;fontFamily=Helvetica;fontSize=11;fontColor=default;labelBackgroundColor=default;endArrow=none;endFill=0;" edge="1" parent="1" source="0lG493gz5aTsEJa9Uoez-24" target="0lG493gz5aTsEJa9Uoez-2">
          <mxGeometry relative="1" as="geometry" />
        </mxCell>
        <mxCell id="0lG493gz5aTsEJa9Uoez-24" value="NIF" style="ellipse;whiteSpace=wrap;html=1;align=center;fontStyle=4;fontFamily=Helvetica;fontSize=11;fontColor=default;labelBackgroundColor=default;" vertex="1" parent="1">
          <mxGeometry x="65" y="334" width="60" height="30" as="geometry" />
        </mxCell>
        <mxCell id="0lG493gz5aTsEJa9Uoez-30" style="edgeStyle=none;shape=connector;rounded=0;orthogonalLoop=1;jettySize=auto;html=1;exitX=1;exitY=0.5;exitDx=0;exitDy=0;entryX=0;entryY=0.5;entryDx=0;entryDy=0;strokeColor=default;align=center;verticalAlign=middle;fontFamily=Helvetica;fontSize=11;fontColor=default;labelBackgroundColor=default;endArrow=none;endFill=0;" edge="1" parent="1" source="0lG493gz5aTsEJa9Uoez-25" target="0lG493gz5aTsEJa9Uoez-2">
          <mxGeometry relative="1" as="geometry" />
        </mxCell>
        <mxCell id="0lG493gz5aTsEJa9Uoez-25" value="Nombre" style="ellipse;whiteSpace=wrap;html=1;align=center;fontFamily=Helvetica;fontSize=11;fontColor=default;labelBackgroundColor=default;" vertex="1" parent="1">
          <mxGeometry x="65" y="394" width="60" height="30" as="geometry" />
        </mxCell>
        <mxCell id="0lG493gz5aTsEJa9Uoez-64" style="edgeStyle=none;shape=connector;rounded=0;orthogonalLoop=1;jettySize=auto;html=1;strokeColor=default;align=center;verticalAlign=middle;fontFamily=Helvetica;fontSize=11;fontColor=default;labelBackgroundColor=default;endArrow=none;endFill=0;" edge="1" parent="1" source="0lG493gz5aTsEJa9Uoez-26" target="0lG493gz5aTsEJa9Uoez-1">
          <mxGeometry relative="1" as="geometry" />
        </mxCell>
        <mxCell id="0lG493gz5aTsEJa9Uoez-26" value="Nombre" style="ellipse;whiteSpace=wrap;html=1;align=center;fontFamily=Helvetica;fontSize=11;fontColor=default;labelBackgroundColor=default;" vertex="1" parent="1">
          <mxGeometry x="525" y="114" width="60" height="30" as="geometry" />
        </mxCell>
        <mxCell id="0lG493gz5aTsEJa9Uoez-67" style="edgeStyle=none;shape=connector;rounded=0;orthogonalLoop=1;jettySize=auto;html=1;exitX=0.5;exitY=1;exitDx=0;exitDy=0;strokeColor=default;align=center;verticalAlign=middle;fontFamily=Helvetica;fontSize=11;fontColor=default;labelBackgroundColor=default;endArrow=none;endFill=0;" edge="1" parent="1" source="0lG493gz5aTsEJa9Uoez-27" target="0lG493gz5aTsEJa9Uoez-4">
          <mxGeometry relative="1" as="geometry" />
        </mxCell>
        <mxCell id="0lG493gz5aTsEJa9Uoez-27" value="Nombre" style="ellipse;whiteSpace=wrap;html=1;align=center;fontFamily=Helvetica;fontSize=11;fontColor=default;labelBackgroundColor=default;" vertex="1" parent="1">
          <mxGeometry x="585" y="444" width="60" height="30" as="geometry" />
        </mxCell>
        <mxCell id="0lG493gz5aTsEJa9Uoez-69" style="edgeStyle=none;shape=connector;rounded=0;orthogonalLoop=1;jettySize=auto;html=1;exitX=0;exitY=0.5;exitDx=0;exitDy=0;strokeColor=default;align=center;verticalAlign=middle;fontFamily=Helvetica;fontSize=11;fontColor=default;labelBackgroundColor=default;endArrow=none;endFill=0;" edge="1" parent="1" source="0lG493gz5aTsEJa9Uoez-28">
          <mxGeometry relative="1" as="geometry">
            <mxPoint x="885" y="404" as="targetPoint" />
          </mxGeometry>
        </mxCell>
        <mxCell id="0lG493gz5aTsEJa9Uoez-28" value="Nombre" style="ellipse;whiteSpace=wrap;html=1;align=center;fontFamily=Helvetica;fontSize=11;fontColor=default;labelBackgroundColor=default;" vertex="1" parent="1">
          <mxGeometry x="945" y="354" width="60" height="30" as="geometry" />
        </mxCell>
        <mxCell id="0lG493gz5aTsEJa9Uoez-68" style="edgeStyle=none;shape=connector;rounded=0;orthogonalLoop=1;jettySize=auto;html=1;exitX=0;exitY=0.5;exitDx=0;exitDy=0;entryX=1;entryY=0.5;entryDx=0;entryDy=0;strokeColor=default;align=center;verticalAlign=middle;fontFamily=Helvetica;fontSize=11;fontColor=default;labelBackgroundColor=default;endArrow=none;endFill=0;" edge="1" parent="1" source="0lG493gz5aTsEJa9Uoez-31" target="0lG493gz5aTsEJa9Uoez-3">
          <mxGeometry relative="1" as="geometry" />
        </mxCell>
        <mxCell id="0lG493gz5aTsEJa9Uoez-31" value="DNI" style="ellipse;whiteSpace=wrap;html=1;align=center;fontStyle=4;fontFamily=Helvetica;fontSize=11;fontColor=default;labelBackgroundColor=default;" vertex="1" parent="1">
          <mxGeometry x="945" y="314" width="60" height="30" as="geometry" />
        </mxCell>
        <mxCell id="0lG493gz5aTsEJa9Uoez-70" style="edgeStyle=none;shape=connector;rounded=0;orthogonalLoop=1;jettySize=auto;html=1;exitX=0;exitY=0.5;exitDx=0;exitDy=0;strokeColor=default;align=center;verticalAlign=middle;fontFamily=Helvetica;fontSize=11;fontColor=default;labelBackgroundColor=default;endArrow=none;endFill=0;" edge="1" parent="1" source="0lG493gz5aTsEJa9Uoez-32">
          <mxGeometry relative="1" as="geometry">
            <mxPoint x="885" y="404" as="targetPoint" />
          </mxGeometry>
        </mxCell>
        <mxCell id="0lG493gz5aTsEJa9Uoez-32" value="Apellido" style="ellipse;whiteSpace=wrap;html=1;align=center;fontFamily=Helvetica;fontSize=11;fontColor=default;labelBackgroundColor=default;" vertex="1" parent="1">
          <mxGeometry x="945" y="404" width="60" height="30" as="geometry" />
        </mxCell>
        <mxCell id="0lG493gz5aTsEJa9Uoez-71" style="edgeStyle=none;shape=connector;rounded=0;orthogonalLoop=1;jettySize=auto;html=1;exitX=0;exitY=0.5;exitDx=0;exitDy=0;entryX=1;entryY=0.5;entryDx=0;entryDy=0;strokeColor=default;align=center;verticalAlign=middle;fontFamily=Helvetica;fontSize=11;fontColor=default;labelBackgroundColor=default;endArrow=none;endFill=0;" edge="1" parent="1" source="0lG493gz5aTsEJa9Uoez-33" target="0lG493gz5aTsEJa9Uoez-3">
          <mxGeometry relative="1" as="geometry" />
        </mxCell>
        <mxCell id="0lG493gz5aTsEJa9Uoez-33" value="edad" style="ellipse;whiteSpace=wrap;html=1;align=center;fontFamily=Helvetica;fontSize=11;fontColor=default;labelBackgroundColor=default;" vertex="1" parent="1">
          <mxGeometry x="945" y="454" width="60" height="30" as="geometry" />
        </mxCell>
        <mxCell id="0lG493gz5aTsEJa9Uoez-63" style="edgeStyle=none;shape=connector;rounded=0;orthogonalLoop=1;jettySize=auto;html=1;exitX=0.5;exitY=1;exitDx=0;exitDy=0;strokeColor=default;align=center;verticalAlign=middle;fontFamily=Helvetica;fontSize=11;fontColor=default;labelBackgroundColor=default;endArrow=none;endFill=0;" edge="1" parent="1" source="0lG493gz5aTsEJa9Uoez-34" target="0lG493gz5aTsEJa9Uoez-1">
          <mxGeometry relative="1" as="geometry" />
        </mxCell>
        <mxCell id="0lG493gz5aTsEJa9Uoez-34" value="Código" style="ellipse;whiteSpace=wrap;html=1;align=center;fontStyle=4;fontFamily=Helvetica;fontSize=11;fontColor=default;labelBackgroundColor=default;" vertex="1" parent="1">
          <mxGeometry x="455" y="114" width="60" height="30" as="geometry" />
        </mxCell>
        <mxCell id="0lG493gz5aTsEJa9Uoez-65" style="edgeStyle=none;shape=connector;rounded=0;orthogonalLoop=1;jettySize=auto;html=1;exitX=0.5;exitY=1;exitDx=0;exitDy=0;strokeColor=default;align=center;verticalAlign=middle;fontFamily=Helvetica;fontSize=11;fontColor=default;labelBackgroundColor=default;endArrow=none;endFill=0;" edge="1" parent="1" source="0lG493gz5aTsEJa9Uoez-35" target="0lG493gz5aTsEJa9Uoez-1">
          <mxGeometry relative="1" as="geometry" />
        </mxCell>
        <mxCell id="0lG493gz5aTsEJa9Uoez-35" value="Precio" style="ellipse;whiteSpace=wrap;html=1;align=center;fontFamily=Helvetica;fontSize=11;fontColor=default;labelBackgroundColor=default;" vertex="1" parent="1">
          <mxGeometry x="599.5" y="114" width="60" height="30" as="geometry" />
        </mxCell>
        <mxCell id="0lG493gz5aTsEJa9Uoez-37" value="Numero" style="ellipse;whiteSpace=wrap;html=1;align=center;fontStyle=4;fontFamily=Helvetica;fontSize=11;fontColor=default;labelBackgroundColor=default;" vertex="1" parent="1">
          <mxGeometry x="505" y="444" width="60" height="30" as="geometry" />
        </mxCell>
        <mxCell id="0lG493gz5aTsEJa9Uoez-39" value="Nombre" style="ellipse;whiteSpace=wrap;html=1;align=center;fontFamily=Helvetica;fontSize=11;fontColor=default;labelBackgroundColor=default;" vertex="1" parent="1">
          <mxGeometry x="775" y="684" width="60" height="30" as="geometry" />
        </mxCell>
        <mxCell id="0lG493gz5aTsEJa9Uoez-40" value="Código" style="ellipse;whiteSpace=wrap;html=1;align=center;fontStyle=4;fontFamily=Helvetica;fontSize=11;fontColor=default;labelBackgroundColor=default;" vertex="1" parent="1">
          <mxGeometry x="965" y="684" width="60" height="30" as="geometry" />
        </mxCell>
        <mxCell id="0lG493gz5aTsEJa9Uoez-76" style="edgeStyle=none;shape=connector;rounded=0;orthogonalLoop=1;jettySize=auto;html=1;exitX=0.5;exitY=0;exitDx=0;exitDy=0;strokeColor=default;align=center;verticalAlign=middle;fontFamily=Helvetica;fontSize=11;fontColor=default;labelBackgroundColor=default;endArrow=none;endFill=0;" edge="1" parent="1" source="0lG493gz5aTsEJa9Uoez-41" target="0lG493gz5aTsEJa9Uoez-12">
          <mxGeometry relative="1" as="geometry" />
        </mxCell>
        <mxCell id="0lG493gz5aTsEJa9Uoez-41" value="Nombre" style="ellipse;whiteSpace=wrap;html=1;align=center;fontFamily=Helvetica;fontSize=11;fontColor=default;labelBackgroundColor=default;" vertex="1" parent="1">
          <mxGeometry x="1045" y="684" width="60" height="30" as="geometry" />
        </mxCell>
        <mxCell id="0lG493gz5aTsEJa9Uoez-42" value="(0,N)" style="text;html=1;align=center;verticalAlign=middle;resizable=0;points=[];autosize=1;strokeColor=none;fillColor=none;fontFamily=Helvetica;fontSize=11;fontColor=default;labelBackgroundColor=default;" vertex="1" parent="1">
          <mxGeometry x="470" y="182" width="50" height="30" as="geometry" />
        </mxCell>
        <mxCell id="0lG493gz5aTsEJa9Uoez-43" value="(0,N)" style="text;html=1;align=center;verticalAlign=middle;resizable=0;points=[];autosize=1;strokeColor=none;fillColor=none;fontFamily=Helvetica;fontSize=11;fontColor=default;labelBackgroundColor=default;" vertex="1" parent="1">
          <mxGeometry x="625" y="182" width="50" height="30" as="geometry" />
        </mxCell>
        <mxCell id="0lG493gz5aTsEJa9Uoez-44" value="(0,N)" style="text;html=1;align=center;verticalAlign=middle;resizable=0;points=[];autosize=1;strokeColor=none;fillColor=none;fontFamily=Helvetica;fontSize=11;fontColor=default;labelBackgroundColor=default;" vertex="1" parent="1">
          <mxGeometry x="785" y="354" width="50" height="30" as="geometry" />
        </mxCell>
        <mxCell id="0lG493gz5aTsEJa9Uoez-45" value="(1,1)" style="text;html=1;align=center;verticalAlign=middle;resizable=0;points=[];autosize=1;strokeColor=none;fillColor=none;fontFamily=Helvetica;fontSize=11;fontColor=default;labelBackgroundColor=default;" vertex="1" parent="1">
          <mxGeometry x="215" y="334" width="50" height="30" as="geometry" />
        </mxCell>
        <mxCell id="0lG493gz5aTsEJa9Uoez-46" value="(0,N)" style="text;html=1;align=center;verticalAlign=middle;resizable=0;points=[];autosize=1;strokeColor=none;fillColor=none;fontFamily=Helvetica;fontSize=11;fontColor=default;labelBackgroundColor=default;" vertex="1" parent="1">
          <mxGeometry x="230" y="414" width="50" height="30" as="geometry" />
        </mxCell>
        <mxCell id="0lG493gz5aTsEJa9Uoez-47" value="(1,1)" style="text;html=1;align=center;verticalAlign=middle;resizable=0;points=[];autosize=1;strokeColor=none;fillColor=none;fontFamily=Helvetica;fontSize=11;fontColor=default;labelBackgroundColor=default;" vertex="1" parent="1">
          <mxGeometry x="475" y="524" width="50" height="30" as="geometry" />
        </mxCell>
        <mxCell id="0lG493gz5aTsEJa9Uoez-48" value="(1,1)" style="text;html=1;align=center;verticalAlign=middle;resizable=0;points=[];autosize=1;strokeColor=none;fillColor=none;fontFamily=Helvetica;fontSize=11;fontColor=default;labelBackgroundColor=default;" vertex="1" parent="1">
          <mxGeometry x="625" y="524" width="50" height="30" as="geometry" />
        </mxCell>
        <mxCell id="0lG493gz5aTsEJa9Uoez-49" value="(1,N)" style="text;html=1;align=center;verticalAlign=middle;resizable=0;points=[];autosize=1;strokeColor=none;fillColor=none;fontFamily=Helvetica;fontSize=11;fontColor=default;labelBackgroundColor=default;" vertex="1" parent="1">
          <mxGeometry x="565" y="554" width="50" height="30" as="geometry" />
        </mxCell>
        <mxCell id="0lG493gz5aTsEJa9Uoez-50" value="(1,1)" style="text;html=1;align=center;verticalAlign=middle;resizable=0;points=[];autosize=1;strokeColor=none;fillColor=none;fontFamily=Helvetica;fontSize=11;fontColor=default;labelBackgroundColor=default;" vertex="1" parent="1">
          <mxGeometry x="685" y="604" width="50" height="30" as="geometry" />
        </mxCell>
        <mxCell id="0lG493gz5aTsEJa9Uoez-51" value="(1,1)" style="text;html=1;align=center;verticalAlign=middle;resizable=0;points=[];autosize=1;strokeColor=none;fillColor=none;fontFamily=Helvetica;fontSize=11;fontColor=default;labelBackgroundColor=default;" vertex="1" parent="1">
          <mxGeometry x="935" y="634" width="50" height="30" as="geometry" />
        </mxCell>
        <mxCell id="0lG493gz5aTsEJa9Uoez-54" style="edgeStyle=none;shape=connector;rounded=0;orthogonalLoop=1;jettySize=auto;html=1;exitX=1;exitY=0.5;exitDx=0;exitDy=0;entryX=0;entryY=0.5;entryDx=0;entryDy=0;strokeColor=default;align=center;verticalAlign=middle;fontFamily=Helvetica;fontSize=11;fontColor=default;labelBackgroundColor=default;endArrow=none;endFill=0;" edge="1" parent="1" source="0lG493gz5aTsEJa9Uoez-52" target="0lG493gz5aTsEJa9Uoez-12">
          <mxGeometry relative="1" as="geometry" />
        </mxCell>
        <mxCell id="0lG493gz5aTsEJa9Uoez-52" value="Relationship" style="shape=rhombus;perimeter=rhombusPerimeter;whiteSpace=wrap;html=1;align=center;" vertex="1" parent="1">
          <mxGeometry x="875" y="614" width="60" height="40" as="geometry" />
        </mxCell>
        <mxCell id="0lG493gz5aTsEJa9Uoez-55" value="(1,N)" style="text;html=1;align=center;verticalAlign=middle;resizable=0;points=[];autosize=1;strokeColor=none;fillColor=none;fontFamily=Helvetica;fontSize=11;fontColor=default;labelBackgroundColor=default;" vertex="1" parent="1">
          <mxGeometry x="815" y="634" width="50" height="30" as="geometry" />
        </mxCell>
        <mxCell id="0lG493gz5aTsEJa9Uoez-56" value="&lt;b&gt;N:M&lt;/b&gt;" style="text;html=1;align=center;verticalAlign=middle;resizable=0;points=[];autosize=1;strokeColor=none;fillColor=none;fontFamily=Helvetica;fontSize=11;fontColor=default;labelBackgroundColor=default;" vertex="1" parent="1">
          <mxGeometry x="785" y="202" width="40" height="30" as="geometry" />
        </mxCell>
        <mxCell id="0lG493gz5aTsEJa9Uoez-57" value="&lt;b&gt;1:N&lt;/b&gt;" style="text;html=1;align=center;verticalAlign=middle;resizable=0;points=[];autosize=1;strokeColor=none;fillColor=none;fontFamily=Helvetica;fontSize=11;fontColor=default;labelBackgroundColor=default;" vertex="1" parent="1">
          <mxGeometry x="325" y="202" width="40" height="30" as="geometry" />
        </mxCell>
        <mxCell id="0lG493gz5aTsEJa9Uoez-58" value="&lt;b&gt;1:N&lt;/b&gt;" style="text;html=1;align=center;verticalAlign=middle;resizable=0;points=[];autosize=1;strokeColor=none;fillColor=none;fontFamily=Helvetica;fontSize=11;fontColor=default;labelBackgroundColor=default;" vertex="1" parent="1">
          <mxGeometry x="365" y="444" width="40" height="30" as="geometry" />
        </mxCell>
        <mxCell id="0lG493gz5aTsEJa9Uoez-59" value="&lt;b&gt;1:N&lt;/b&gt;" style="text;html=1;align=center;verticalAlign=middle;resizable=0;points=[];autosize=1;strokeColor=none;fillColor=none;fontFamily=Helvetica;fontSize=11;fontColor=default;labelBackgroundColor=default;" vertex="1" parent="1">
          <mxGeometry x="725" y="438" width="40" height="30" as="geometry" />
        </mxCell>
        <mxCell id="0lG493gz5aTsEJa9Uoez-60" value="(0,N)" style="text;html=1;align=center;verticalAlign=middle;resizable=0;points=[];autosize=1;strokeColor=none;fillColor=none;fontFamily=Helvetica;fontSize=11;fontColor=default;labelBackgroundColor=default;" vertex="1" parent="1">
          <mxGeometry x="815" y="424" width="50" height="30" as="geometry" />
        </mxCell>
        <mxCell id="0lG493gz5aTsEJa9Uoez-61" value="&lt;b&gt;1:N&lt;/b&gt;" style="text;html=1;align=center;verticalAlign=middle;resizable=0;points=[];autosize=1;strokeColor=none;fillColor=none;fontFamily=Helvetica;fontSize=11;fontColor=default;labelBackgroundColor=default;" vertex="1" parent="1">
          <mxGeometry x="555" y="654" width="40" height="30" as="geometry" />
        </mxCell>
        <mxCell id="0lG493gz5aTsEJa9Uoez-62" value="&lt;b&gt;1:N&lt;/b&gt;" style="text;html=1;align=center;verticalAlign=middle;resizable=0;points=[];autosize=1;strokeColor=none;fillColor=none;fontFamily=Helvetica;fontSize=11;fontColor=default;labelBackgroundColor=default;" vertex="1" parent="1">
          <mxGeometry x="885" y="584" width="40" height="30" as="geometry" />
        </mxCell>
        <mxCell id="0lG493gz5aTsEJa9Uoez-66" style="edgeStyle=none;shape=connector;rounded=0;orthogonalLoop=1;jettySize=auto;html=1;exitX=0.5;exitY=1;exitDx=0;exitDy=0;entryX=0.33;entryY=0.05;entryDx=0;entryDy=0;entryPerimeter=0;strokeColor=default;align=center;verticalAlign=middle;fontFamily=Helvetica;fontSize=11;fontColor=default;labelBackgroundColor=default;endArrow=none;endFill=0;" edge="1" parent="1" source="0lG493gz5aTsEJa9Uoez-37" target="0lG493gz5aTsEJa9Uoez-4">
          <mxGeometry relative="1" as="geometry" />
        </mxCell>
        <mxCell id="0lG493gz5aTsEJa9Uoez-73" style="edgeStyle=none;shape=connector;rounded=0;orthogonalLoop=1;jettySize=auto;html=1;exitX=0.5;exitY=0;exitDx=0;exitDy=0;entryX=0.25;entryY=1;entryDx=0;entryDy=0;strokeColor=default;align=center;verticalAlign=middle;fontFamily=Helvetica;fontSize=11;fontColor=default;labelBackgroundColor=default;endArrow=none;endFill=0;" edge="1" parent="1" source="0lG493gz5aTsEJa9Uoez-72" target="0lG493gz5aTsEJa9Uoez-10">
          <mxGeometry relative="1" as="geometry" />
        </mxCell>
        <mxCell id="0lG493gz5aTsEJa9Uoez-72" value="C.P." style="ellipse;whiteSpace=wrap;html=1;align=center;fontStyle=4;fontFamily=Helvetica;fontSize=11;fontColor=default;labelBackgroundColor=default;" vertex="1" parent="1">
          <mxGeometry x="705" y="684" width="60" height="30" as="geometry" />
        </mxCell>
        <mxCell id="0lG493gz5aTsEJa9Uoez-74" style="edgeStyle=none;shape=connector;rounded=0;orthogonalLoop=1;jettySize=auto;html=1;exitX=0.5;exitY=0;exitDx=0;exitDy=0;entryX=0.69;entryY=0.975;entryDx=0;entryDy=0;entryPerimeter=0;strokeColor=default;align=center;verticalAlign=middle;fontFamily=Helvetica;fontSize=11;fontColor=default;labelBackgroundColor=default;endArrow=none;endFill=0;" edge="1" parent="1" source="0lG493gz5aTsEJa9Uoez-39" target="0lG493gz5aTsEJa9Uoez-10">
          <mxGeometry relative="1" as="geometry" />
        </mxCell>
        <mxCell id="0lG493gz5aTsEJa9Uoez-75" style="edgeStyle=none;shape=connector;rounded=0;orthogonalLoop=1;jettySize=auto;html=1;exitX=0.5;exitY=0;exitDx=0;exitDy=0;entryX=0.38;entryY=0.975;entryDx=0;entryDy=0;entryPerimeter=0;strokeColor=default;align=center;verticalAlign=middle;fontFamily=Helvetica;fontSize=11;fontColor=default;labelBackgroundColor=default;endArrow=none;endFill=0;" edge="1" parent="1" source="0lG493gz5aTsEJa9Uoez-40" target="0lG493gz5aTsEJa9Uoez-12">
          <mxGeometry relative="1" as="geometry" />
        </mxCell>
      </root>
    </mxGraphModel>
  </diagram>
</mxfile>
